<svg xmlns="http://www.w3.org/2000/svg" viewBox="0 0 208.83 42.86"><defs><style>.cls-1{fill:#f77f00;fill-rule:evenodd;}</style></defs><title>chilihot-logo_1</title><g id="Capa_2" data-name="Capa 2"><g id="Capa_3" data-name="Capa 3"><path className="cls-1" d="M119.13,35.1V17.61h3.71v-7H107.43v7h3.71V35.1h-4v7.09h16V35.1Z"/><path className="cls-1" d="M94.18,10.56H86.05V42.19h19.61V34.92H94.18Z"/><path className="cls-1" d="M78.27,35.1V17.61H82v-7H66.57v7h3.7V35.1h-4v7.09h16V35.1Z"/><path className="cls-1" d="M62.27,10.56H54V22H44.24V10.56H36V42.19h8.27V29.5H54V42.19h8.27Z"/><path className="cls-1" d="M0,26.38C0,37.13,8.18,42.55,16.22,42.51,23,42.51,30,39,31.22,30H23.27c-.86,3.39-3.62,5.1-7,5.1-4.79,0-7.86-4.11-7.86-8.76,0-5.24,3.11-8.81,7.86-8.81,3.39,0,5.78,1.44,6.91,4.65h8c-1.22-8.45-8.31-12-14.86-12C8.18,10.21,0,15.63,0,26.38Z"/><path className="cls-1" d="M193.11,17.79v24.4h8V17.79h7.73V10.56H185.34v7.23Z"/><path className="cls-1" d="M185.38,26.42c0-21.86-32.44-21.86-32.44,0S185.38,48.33,185.38,26.42Z"/><path className="cls-1" d="M151.38,10.56h-8.27V22h-9.76V10.56h-8.27V42.19h8.27V29.5h9.76V42.19h8.27Z"/><path className="cls-1" d="M184.29,4.32c0-5.76-8.54-5.76-8.54,0S184.29,10.08,184.29,4.32Z"/></g></g></svg>